<?xml version="1.0" encoding="UTF-8" standalone="no"?>
<!-- Created with Inkscape (http://www.inkscape.org/) -->

<svg
   width="50mm"
   height="50mm"
   viewBox="0 0 50 50"
   version="1.1"
   id="svg1"
   inkscape:version="1.4.4 (dcaf3e7d9e, 2026-05-05)"
   sodipodi:docname="base.svg"
   xmlns:inkscape="http://www.inkscape.org/namespaces/inkscape"
   xmlns:sodipodi="http://sodipodi.sourceforge.net/DTD/sodipodi-0.dtd"
   xmlns="http://www.w3.org/2000/svg"
   xmlns:svg="http://www.w3.org/2000/svg">
  <sodipodi:namedview
     id="namedview1"
     pagecolor="#ffffff"
     bordercolor="#000000"
     borderopacity="0.25"
     inkscape:showpageshadow="2"
     inkscape:pageopacity="0.0"
     inkscape:pagecheckerboard="0"
     inkscape:deskcolor="#d1d1d1"
     inkscape:document-units="mm"
     inkscape:zoom="3.5491582"
     inkscape:cx="80.018974"
     inkscape:cy="64.944977"
     inkscape:window-width="1864"
     inkscape:window-height="999"
     inkscape:window-x="56"
     inkscape:window-y="44"
     inkscape:window-maximized="1"
     inkscape:current-layer="layer1" />
  <defs
     id="defs1" />
  <g
     inkscape:label="Layer 1"
     inkscape:groupmode="layer"
     id="layer1">
    <path
       style="fill:none;stroke:#000000;stroke-width:1.8;stroke-dasharray:none"
       d="m 3.2801211,32.055722 c 0.024849,0.07455 0.039405,0.153364 0.074548,0.223644 0.024849,0.04971 0.1490964,0.01898 0.1490964,0.07455 0,0.164407 -0.1490964,-0.147204 -0.1490964,-0.223644 0,-0.308827 0.050238,-0.6677 0,-0.969129 -0.022,-0.131995 -0.1228524,-0.24152 -0.1490964,-0.37274 -0.024432,-0.122158 -0.045719,-0.482089 0,-0.596386 0.033275,-0.08319 0.1158214,-0.140455 0.1490964,-0.223645 0.065258,-0.163142 0.036431,-0.350308 0.074548,-0.521835 0.046057,-0.207259 0.1820066,-0.388197 0.2236446,-0.596387 0.02924,-0.1462 -0.02924,-0.301087 0,-0.447288 0.021794,-0.108972 0.1221432,-0.190381 0.1490962,-0.298194 0.042188,-0.168751 0,-0.347892 0,-0.521837 0,-0.514554 0.1874673,-0.992698 0.2981928,-1.490964 0.016171,-0.07277 -0.023574,-0.152925 0,-0.223645 0.028333,-0.085 0.1138024,-0.141294 0.1490964,-0.223644 0.077572,-0.181003 0.080602,-0.42515 0.1490964,-0.596386 0.033275,-0.08319 0.1207634,-0.138644 0.1490964,-0.223644 0.1142561,-0.342769 -0.04783,-0.959225 0,-1.341868 0.031432,-0.251458 0.1238814,-0.493324 0.1490964,-0.745481 0.012364,-0.123631 -0.020426,-0.250185 0,-0.372741 0.029741,-0.178445 0.1251865,-0.342518 0.1490965,-0.521838 0.045978,-0.344839 -0.062233,-0.701394 0,-1.043674 0.023938,-0.13166 0.1270964,-0.240744 0.1490964,-0.372741 0.1069295,-0.641579 -0.038161,-1.364075 0,-2.012801 0.095036,-1.615622 -0.00167,0.232 0.2981925,-1.26732 0.058684,-0.293415 0.057951,-0.595813 0.074548,-0.894578 0.027093,-0.487671 0.082538,-1.558842 0,-2.012801 -0.023938,-0.13166 -0.1228524,-0.241522 -0.1490964,-0.372741 -0.087495,-0.437473 0.026841,-0.789933 -0.2981925,-1.192771 0.6511371,-0.288999 1.250753,-0.223645 1.9382529,-0.223645 1.3792507,0 0.2959038,-0.07509 1.8637049,0.298193 0.8498565,0.202347 1.6048284,0.03312 2.4600904,0.521837 0.191179,0.109245 0.574045,0.892149 0.670934,1.118223 0.04036,0.09417 0.02549,0.208247 0.07455,0.298193 0.06418,0.117669 0.528999,0.692418 0.596385,0.894578 0.05556,0.166695 0.03773,0.350026 0.07455,0.521838 0.07082,0.330485 0.250394,0.634535 0.298192,0.969126 0.145468,1.018271 -0.129783,2.010098 -0.372741,2.981928 -0.106852,0.42741 -0.171011,0.563045 -0.447289,0.894578 -0.05736,0.06883 -0.07312,0.176159 -0.149096,0.223645 -0.133273,0.08329 -0.304215,0.08406 -0.447289,0.149096 -0.424859,0.193118 -0.490782,0.391381 -0.969127,0.596386 -0.427508,0.183218 -2.0346482,0.220523 -2.5346384,0.149096 C 7.8441835,22.04734 7.7320902,21.955621 7.6039157,21.917169 7.4825518,21.88076 7.3502536,21.885922 7.2311747,21.842621 6.6102878,21.616843 6.0532802,21.198104 5.4420181,20.948042 5.1438253,20.848645 4.8456325,20.749247 4.5474398,20.649849 c -0.099398,0 -0.201763,0.02411 -0.2981928,0 -0.048215,-0.01205 0,-0.0994 0,-0.149096"
       id="path2" />
    <path
       style="fill:none;stroke:#000000;stroke-width:1.8;stroke-dasharray:none"
       d="m 20.500753,14.611446 c -0.697608,0.0047 -1.394898,-0.04086 -2.087349,0.07455 -0.299819,0.04997 -0.320432,0.439736 -0.521838,0.596385 -0.158141,0.122999 -0.351214,0.193194 -0.521837,0.298193 -0.40442,0.248874 -0.929678,0.482388 -1.26732,0.82003 -0.403206,0.403206 -0.43112,1.069718 -0.596385,1.565512 -0.167845,0.503534 -0.550642,0.929316 -0.745482,1.416416 -0.0761,0.190257 -0.0963,0.398391 -0.149096,0.596385 -0.04661,0.174798 -0.123513,0.34275 -0.149097,0.521838 -0.0246,0.172197 0.02645,0.349914 0,0.521837 -0.0239,0.155334 -0.125199,0.291955 -0.149096,0.447289 -0.07145,0.464422 0.04758,0.585134 0.07455,1.043675 0.01459,0.248065 0,0.496988 0,0.745482 0,1.173641 -0.225963,2.605129 0.372741,3.652862 0.147422,0.257987 0.401806,0.45203 0.596386,0.670933 0.105709,0.118922 0.180458,0.26571 0.298192,0.372742 0.502417,0.456742 0.512569,0.336817 1.118223,0.596384 0.153217,0.06566 0.289149,0.170931 0.447289,0.223644 0.143397,0.0478 0.301952,0.03302 0.447289,0.07455 0.03379,0.0097 0.04121,0.08566 0.07455,0.07455 0.150948,-0.05032 0.236302,-0.216331 0.372741,-0.298193 0.114748,-0.06885 0.261397,-0.07487 0.37274,-0.149098 0.02068,-0.01379 -0.01111,-0.05232 0,-0.07455 0.155126,-0.310253 -0.0051,0.0797 0.149097,-0.07455 0.01757,-0.01757 -0.02222,-0.06343 0,-0.07455 0.156666,-0.07833 0.649429,0 0.82003,0 0.0497,0 0.113954,-0.03514 0.149097,0 0.01757,0.01757 0,0.0497 0,0.07455 0.0497,0.02484 0.0994,0.0497 0.149096,0.07455"
       id="path3" />
    <path
       style="fill:none;stroke:#000000;stroke-width:1.8;stroke-dasharray:none"
       d="m 24.302711,27.433739 c 0.02465,0.19716 0.133824,1.624789 0.223644,1.714609 0.0496,0.0496 0.203905,-0.353003 0.223645,-0.372743 0.03929,-0.03929 0.135626,-0.02065 0.149096,-0.07455 0.04219,-0.168754 -0.03411,-0.351271 0,-0.521838 0.329753,-1.648769 0.171477,0.506696 0.298193,-1.267319 0.03541,-0.495726 0,-0.993977 0,-1.490964 0,-1.543934 0.02127,-2.863825 -0.149097,-4.472892 -0.212906,-2.010782 -0.674935,-4.049618 -1.043674,-6.038404 1.968885,-0.410184 1.463624,-0.431836 3.354669,-0.37274 0.273343,0.02485 0.546687,0.0497 0.82003,0.07455 0.0497,0.02485 0.09519,0.06107 0.149096,0.07455 0.04821,0.01205 0.10648,-0.02557 0.149097,0 0.0904,0.05424 0.13109,0.173161 0.223644,0.223645 0.186389,0.101666 0.406487,0.128695 0.596386,0.223644 0.04129,0.02065 0.801881,0.719555 0.82003,0.745482 0.108526,0.155038 0.139011,0.352569 0.223645,0.521837 0.161476,0.322954 0.334381,0.510987 0.37274,0.894579 0.01993,0.199241 0.05218,0.629942 -0.07455,0.82003 -0.272064,0.408096 -0.121253,0.130491 -0.447289,0.223644 -0.648603,0.324302 0.04684,0.03215 -0.596385,0.149097 -0.177989,0.03236 -0.343035,0.121588 -0.521838,0.149096 -0.430009,0.06616 -1.651648,0.04357 -2.087349,0 -0.300806,-0.03008 -0.594343,-0.113774 -0.894578,-0.149096 -0.123396,-0.01452 -0.248494,0 -0.372741,0 -0.0497,0 -0.149097,-0.0497 -0.149097,0 0,0.07455 0.153282,-0.02463 0.223645,0 0.452978,0.158542 0.894578,0.347891 1.341867,0.521837 0.546687,0.124247 1.103076,0.211646 1.64006,0.372741 1.460778,0.438234 2.708166,1.280892 4.025603,2.012801 0.242862,0.134924 0.490121,0.263301 0.745482,0.372741 0.09417,0.04036 0.209235,0.02372 0.298193,0.07455 0.287465,0.164265 1.281158,1.838702 1.192771,2.236445 -0.09956,0.448007 -0.376621,0.645383 -0.670934,0.969127 -0.130552,0.143607 -0.217477,0.330841 -0.372741,0.447289 -0.151398,0.113548 -0.354196,0.135832 -0.521837,0.223645 -0.354939,0.18592 -0.677525,0.433652 -1.043675,0.596385 -0.176537,0.07846 -1.844336,0.699762 -2.385542,0.82003 -0.418752,0.09306 -0.850197,0.123535 -1.26732,0.223645 -0.336555,0.08077 -0.629735,0.304863 -0.969126,0.372741 -0.550024,0.110005 -1.617968,0 -2.236446,0 -0.0994,0 -0.227908,0.07028 -0.298193,0 -0.01757,-0.01757 0,-0.0497 0,-0.07455"
       id="path4" />
    <path
       style="fill:#1a1a1a;stroke:none;stroke-width:1.8;stroke-dasharray:none"
       d="m 26.39006,5.6656625 6.858434,3.7274098 -2.087351,4.2492467 h 8.423947 l -1.789158,3.578313 2.236447,0.521838 1.789157,-3.354669 5.442019,3.131024 0.596384,-2.012801 -4.845632,-2.758283 1.714608,-4.3237954 -2.46009,-0.9691264 -1.26732,3.8019578 L 36.454066,4.3237951 34.21762,7.8275602 26.911898,4.1001505 Z"
       id="path14" />
    <path
       style="fill:#1a1a1a;stroke:none;stroke-width:1.8;stroke-dasharray:none"
       d="m 7.5293674,30.415664 0.4472892,7.902106 8.7966864,1.118225 -1.043675,-2.385545 -4.994728,-0.820028 0.894578,-1.863706 4.398343,0.447291 v -1.640062 l -4.621988,-0.820029 0.298193,-1.714608 3.951054,0.447289 -0.82003,-1.490965 z"
       id="path15" />
    <path
       style="fill:#1a1a1a;stroke:none;stroke-width:1.8;stroke-dasharray:none"
       d="m 18.413404,33.099398 2.310993,-1.640062 4.994729,0.969127 1.341867,5.516567 3.652861,0.447289 -0.149095,1.938253 -3.876506,0.298193 -1.640061,-2.534639 -3.354668,2.012802 -3.429217,-2.758284 4.398343,-3.205573 -1.416415,-1.043673 -1.863705,1.416416 z"
       id="path16" />
    <path
       style="fill:#1a1a1a;stroke:none;stroke-width:1.8;stroke-dasharray:none"
       d="m 32.652107,31.832079 -4.323794,1.938252 0.298193,2.236447 3.652861,1.19277 -1.714608,3.131024 -3.652861,2.087348 6.038402,-1.341866 1.64006,-4.621988 -3.056475,-1.490964 0.149096,-1.416415 3.056477,0.298193 z"
       id="path17" />
    <path
       style="fill:#1a1a1a;stroke:none;stroke-width:1.8;stroke-dasharray:none"
       d="m 35.708584,31.310241 2.683735,0.298193 0.596384,-3.429217 2.460091,0.149096 -0.894578,3.652861 2.907379,0.521838 -0.521837,2.087348 -2.534637,-0.969127 -0.447291,7.454821 -2.087349,-0.298193 0.894578,-7.231174 -2.534637,-0.521838 z"
       id="path18" />
  </g>
</svg>
